<svg width="128" height="128" viewBox="0 0 128 128" fill="none" xmlns="http://www.w3.org/2000/svg">
  <path d="M64 92C77.2548 92 88 81.2548 88 68C88 54.7452 77.2548 44 64 44C50.7452 44 40 54.7452 40 68C40 81.2548 50.7452 92 64 92Z" fill="#2196F3"/>
  <path d="M108 32H92L86.4 23.2C85.7143 22.1236 84.7466 21.2547 83.6024 20.6731C82.4582 20.0915 81.1832 19.8159 79.888 19.872H48.112C46.8168 19.8159 45.5418 20.0915 44.3976 20.6731C43.2534 21.2547 42.2857 22.1236 41.6 23.2L36 32H20C16.8174 32 13.7652 33.2643 11.5147 35.5147C9.26428 37.7652 8 40.8174 8 44V96C8 99.1826 9.26428 102.235 11.5147 104.485C13.7652 106.736 16.8174 108 20 108H108C111.183 108 114.235 106.736 116.485 104.485C118.736 102.235 120 99.1826 120 96V44C120 40.8174 118.736 37.7652 116.485 35.5147C114.235 33.2643 111.183 32 108 32Z" fill="#2196F3"/>
</svg> 