<svg width="16" height="16" viewBox="0 0 16 16" fill="none" xmlns="http://www.w3.org/2000/svg">
  <path d="M8 11.5C9.38071 11.5 10.5 10.3807 10.5 9C10.5 7.61929 9.38071 6.5 8 6.5C6.61929 6.5 5.5 7.61929 5.5 9C5.5 10.3807 6.61929 11.5 8 11.5Z" fill="#2196F3"/>
  <path d="M13.5 4H11.5L10.8 2.9C10.7143 2.76545 10.5933 2.65684 10.4503 2.58414C10.3074 2.51143 10.1479 2.47699 9.986 2.484H6.014C5.85211 2.47699 5.69259 2.51143 5.54967 2.58414C5.40675 2.65684 5.28575 2.76545 5.2 2.9L4.5 4H2.5C2.10218 4 1.72064 4.15804 1.43934 4.43934C1.15804 4.72064 1 5.10218 1 5.5V12C1 12.3978 1.15804 12.7794 1.43934 13.0607C1.72064 13.342 2.10218 13.5 2.5 13.5H13.5C13.8978 13.5 14.2794 13.342 14.5607 13.0607C14.842 12.7794 15 12.3978 15 12V5.5C15 5.10218 14.842 4.72064 14.5607 4.43934C14.2794 4.15804 13.8978 4 13.5 4Z" fill="#2196F3"/>
</svg> 