<svg width="48" height="48" viewBox="0 0 48 48" fill="none" xmlns="http://www.w3.org/2000/svg">
  <path d="M24 34.5C28.1421 34.5 31.5 31.1421 31.5 27C31.5 22.8579 28.1421 19.5 24 19.5C19.8579 19.5 16.5 22.8579 16.5 27C16.5 31.1421 19.8579 34.5 24 34.5Z" fill="#2196F3"/>
  <path d="M40.5 12H34.5L32.4 8.7C32.1429 8.29636 31.7799 7.97053 31.3509 7.75243C30.9219 7.53433 30.4437 7.43097 29.958 7.452H18.042C17.5563 7.43097 17.0781 7.53433 16.6491 7.75243C16.2201 7.97053 15.8571 8.29636 15.6 8.7L13.5 12H7.5C6.30653 12 5.16193 12.4741 4.31802 13.318C3.47411 14.1619 3 15.3065 3 16.5V36C3 37.1935 3.47411 38.3381 4.31802 39.182C5.16193 40.0259 6.30653 40.5 7.5 40.5H40.5C41.6935 40.5 42.8381 40.0259 43.682 39.182C44.5259 38.3381 45 37.1935 45 36V16.5C45 15.3065 44.5259 14.1619 43.682 13.318C42.8381 12.4741 41.6935 12 40.5 12Z" fill="#2196F3"/>
</svg> 